# xmcd CD database file
#
# Track frame offsets:
#	150
#	17227
#	37174
#	61375
#	86895
#	105310
#	123341
#	140218
#	157336
#	172855
#	186999
#	203782
#	217360
#	235998
#	255263
#	272271
#	287608
#	304876
#	317534
#	338351
#
# Disc length: 4722 seconds
#
# Revision: 4
# Processed by: cddbd v1.5.2PL0 Copyright (c) Steve Scherf et al.
# Submitted via: CDex 1.70beta2
#
DISCID=27127014
DTITLE=Various Artist - AUSTRO-POP Best Of CD 2 - Die größten Hits aus 3 Jahrzehnten
DYEAR=2001
DGENRE=Austropop
TTITLE0=Falco - Der Kommissar
TTITLE1=DÖF - Codo
TTITLE2=STS - Fürstenfeld
TTITLE3=EAV - Küss´ die Hand schöne Frau (Hardcore-Maxi)
TTITLE4=Reinhard Fendrich - Es lebe der Sport
TTITLE5=Wolfgang Ambros - Schifoan
TTITLE6=Nickerbocker and Biene - Z`ruck zu Dir (Hallo Klaus)
TTITLE7=Anton feat. DJ Ötzi - Anton aus Tirol
TTITLE8=Minisex - Rudi gib acht
TTITLE9=John Fox Band - Narrenkast´l schau´n, Luftschlösser bau´n
TTITLE10=Ambros - Heller - Für immer jung
TTITLE11=Arik Brauer - Sein Köpferl im Sand
TTITLE12=Peter Cornelius - Segel im Wind
TTITLE13=Dew Mitch - Don´t Say No
TTITLE14=Austria 3 - Schau Schatzi
TTITLE15=Stefanie Werger - Sommer
TTITLE16=Boris Bukowski - Trag´ meine Liebe wie einen Mantel
TTITLE17=Georg Danzer - Ruaf mi net an
TTITLE18=Waterloo and Robinson - Hollywood
TTITLE19=Reinhard Fendrich - Weus´d a Herz hast wia a Bergwerk
EXTD=YEAR: 2001
EXTT0=
EXTT1=
EXTT2=
EXTT3=
EXTT4=
EXTT5=
EXTT6=
EXTT7=
EXTT8=
EXTT9=
EXTT10=
EXTT11=
EXTT12=
EXTT13=
EXTT14=
EXTT15=
EXTT16=
EXTT17=
EXTT18=
EXTT19=
PLAYORDER=
